<svg viewBox="0 0 200 200" xmlns="http://www.w3.org/2000/svg">
  <path fill="#BAE6FF" d="M40.1,-71.3C47.6,-65.1,46.4,-45.6,54.3,-31.5C62.3,-17.4,79.3,-8.7,79.5,0.1C79.6,8.9,62.9,17.8,52.2,27.1C41.6,36.4,36.9,46.1,29.2,52.5C21.5,58.9,10.7,62.1,-1.4,64.6C-13.6,67.1,-27.2,68.9,-34.6,62.3C-42,55.7,-43.1,40.6,-49.4,28.8C-55.7,17.1,-67,8.5,-70.3,-1.9C-73.5,-12.2,-68.6,-24.5,-60.2,-32.6C-51.8,-40.8,-40,-44.8,-29.4,-49.3C-18.8,-53.7,-9.4,-58.5,3.4,-64.5C16.3,-70.4,32.5,-77.5,40.1,-71.3Z" transform="translate(100 100)" />
</svg>